Coordinates
version=1
nRows=16
nColumns=40
inDegrees=yes

Units are S.I. units (second, meters, Newtons, ...)
If the header above contains a line with 'inDegrees', this indicates whether rotational values are in degrees (yes) or radians (no).

endheader
time	pelvis_tilt	pelvis_list	pelvis_rotation	pelvis_tx	pelvis_ty	pelvis_tz	hip_flexion_r	hip_adduction_r	hip_rotation_r	knee_angle_r	knee_angle_r_beta	ankle_angle_r	subtalar_angle_r	mtp_angle_r	hip_flexion_l	hip_adduction_l	hip_rotation_l	knee_angle_l	knee_angle_l_beta	ankle_angle_l	subtalar_angle_l	mtp_angle_l	lumbar_extension	lumbar_bending	lumbar_rotation	arm_flex_r	arm_add_r	arm_rot_r	elbow_flex_r	pro_sup_r	wrist_flex_r	wrist_dev_r	arm_flex_l	arm_add_l	arm_rot_l	elbow_flex_l	pro_sup_l	wrist_flex_l	wrist_dev_l
      3.65000000	     -4.89312309	      4.23670545	      7.31119657	     -0.33148920	      1.00702981	     -0.77829973	     28.09118426	     -6.26405425	    -14.39415758	     47.71763060	      0.83282977	     13.61422503	      0.00000000	      0.00000000	     17.59987337	     -9.26027116	     -4.58566558	     94.11109810	      1.64254852	    -15.78185964	      0.00000000	      0.00000000	     -6.70456398	      2.10203932	     -1.14495844	     89.94373717	    -13.31400226	     24.56092696	     37.47233216	     82.21751806	      0.00000000	      0.00000000	     89.94635663	     -5.95700171	     25.66332264	     39.40942480	     83.26100506	      0.00000000	      0.00000000
      3.65500000	     -4.95039051	      4.20158857	      7.27588741	     -0.33138735	      1.00628783	     -0.77827666	     28.23794464	     -6.28965097	    -14.44404463	     47.92229421	      0.83640182	     13.75010451	      0.00000000	      0.00000000	     17.58907679	     -9.35343474	     -4.71846218	     94.10232711	      1.64239544	    -15.82113531	      0.00000000	      0.00000000	     -6.65598988	      2.14598703	     -1.03818144	     89.94398022	    -13.37070444	     24.69571033	     37.49743417	     81.87751063	      0.00000000	      0.00000000	     89.94594408	     -5.88647552	     25.65393004	     39.32574434	     82.95869149	      0.00000000	      0.00000000
      3.66000000	     -5.01259399	      4.13883484	      7.29565749	     -0.33132194	      1.00555790	     -0.77828784	     28.38670084	     -6.32673810	    -14.60484553	     48.16175142	      0.84058114	     13.84255508	      0.00000000	      0.00000000	     17.59659614	     -9.46508737	     -4.81342325	     94.08103715	      1.64202386	    -15.91267819	      0.00000000	      0.00000000	     -6.61984174	      2.21739995	     -1.02524163	     89.94377173	    -13.36116934	     24.51908269	     37.53137684	     82.20896652	      0.00000000	      0.00000000	     89.94639696	     -5.90582130	     25.73016863	     39.35802720	     83.21126698	      0.00000000	      0.00000000
      3.66500000	     -5.03906940	      4.02280092	      7.28032482	     -0.33117465	      1.00482297	     -0.77819652	     28.48239484	     -6.27234903	    -14.74170190	     48.33901928	      0.84367504	     13.94290260	      0.00000000	      0.00000000	     17.56871957	     -9.65142002	     -4.88844540	     94.07204199	      1.64186687	    -15.93786887	      0.00000000	      0.00000000	     -6.60158494	      2.35579359	     -0.95949814	     89.94390112	    -13.36291044	     24.50463744	     37.57381822	     82.07484448	      0.00000000	      0.00000000	     89.94635246	     -5.88639919	     25.71638213	     39.32122208	     83.17292634	      0.00000000	      0.00000000
      3.67000000	     -5.04220318	      3.98653626	      7.25384392	     -0.33099675	      1.00419961	     -0.77817658	     28.56372709	     -6.30662371	    -14.84753358	     48.55630056	      0.84746732	     14.02288882	      0.00000000	      0.00000000	     17.47400298	     -9.76616164	     -5.03385522	     94.01606414	      1.64088987	    -16.01979322	      0.00000000	      0.00000000	     -6.62823572	      2.40823121	     -0.90622580	     89.94391979	    -13.37378618	     24.42459850	     37.60459537	     82.24642640	      0.00000000	      0.00000000	     89.94636531	     -5.89944277	     25.71827383	     39.33250839	     83.17174282	      0.00000000	      0.00000000
      3.67500000	     -5.09363441	      3.92877134	      7.25798383	     -0.33095846	      1.00352097	     -0.77816076	     28.68298432	     -6.32513273	    -14.94585024	     48.71161115	      0.85017800	     14.09474461	      0.00000000	      0.00000000	     17.47634703	     -9.86810447	     -5.11205481	     93.96493591	      1.63999751	    -16.12612596	      0.00000000	      0.00000000	     -6.60601775	      2.47848806	     -0.89468894	     89.94398729	    -13.36382775	     24.38938190	     37.64241702	     82.22432132	      0.00000000	      0.00000000	     89.94638665	     -5.92999895	     25.75932168	     39.32933404	     83.18540173	      0.00000000	      0.00000000
      3.68000000	     -5.14591631	      3.86569878	      7.23103571	     -0.33085915	      1.00284774	     -0.77814363	     28.82632592	     -6.33406794	    -15.06036065	     48.95084991	      0.85435350	     14.19492693	      0.00000000	      0.00000000	     17.46760664	     -9.96861262	     -5.21326071	     93.90921668	      1.63902503	    -16.20556159	      0.00000000	      0.00000000	     -6.56424683	      2.55414866	     -0.82576657	     89.94397049	    -13.36161000	     24.32251698	     37.64142478	     82.24341513	      0.00000000	      0.00000000	     89.94630616	     -5.91610395	     25.75703617	     39.29068997	     83.11640468	      0.00000000	      0.00000000
      3.68500000	     -5.20108105	      3.77547367	      7.19850148	     -0.33069248	      1.00206142	     -0.77805937	     28.95613948	     -6.29753665	    -15.14786762	     49.13249252	      0.85752376	     14.29640781	      0.00000000	      0.00000000	     17.45276910	    -10.13919229	     -5.33643276	     93.88723058	      1.63864130	    -16.32211673	      0.00000000	      0.00000000	     -6.51552415	      2.66296878	     -0.77720746	     89.94409423	    -13.34365755	     24.32203877	     37.66753949	     82.30449620	      0.00000000	      0.00000000	     89.94630651	     -5.93555791	     25.72477534	     39.26933675	     83.15941963	      0.00000000	      0.00000000
      3.69000000	     -5.24639042	      3.77003668	      7.14734359	     -0.33059003	      1.00141625	     -0.77799982	     29.08119120	     -6.35169633	    -15.21732512	     49.32455189	      0.86087583	     14.39208496	      0.00000000	      0.00000000	     17.41828155	    -10.21149665	     -5.50240913	     93.83749719	      1.63777329	    -16.43593664	      0.00000000	      0.00000000	     -6.50370883	      2.67327448	     -0.69830346	     89.94397257	    -13.33005526	     24.24431362	     37.67155053	     82.33962562	      0.00000000	      0.00000000	     89.94643936	     -5.95570668	     25.81120806	     39.27488891	     83.18988252	      0.00000000	      0.00000000
      3.69500000	     -5.28362983	      3.73364938	      7.14728801	     -0.33050336	      1.00078810	     -0.77801946	     29.19759483	     -6.40175069	    -15.34984467	     49.54161512	      0.86466430	     14.39466985	      0.00000000	      0.00000000	     17.39788800	    -10.27939006	     -5.57701276	     93.80491742	      1.63720466	    -16.45888701	      0.00000000	      0.00000000	     -6.49931887	      2.72662584	     -0.66349632	     89.94407798	    -13.33930942	     24.20182636	     37.69664179	     82.23609065	      0.00000000	      0.00000000	     89.94650511	     -5.96010733	     25.76800199	     39.30024932	     83.22613752	      0.00000000	      0.00000000
      3.70000000	     -5.33033937	      3.70184094	      7.11341149	     -0.33043233	      1.00014057	     -0.77796926	     29.32514267	     -6.42604555	    -15.41051700	     49.72698101	      0.86789955	     14.42367130	      0.00000000	      0.00000000	     17.37637506	    -10.37341702	     -5.71220340	     93.75829471	      1.63639094	    -16.54380579	      0.00000000	      0.00000000	     -6.47541984	      2.76437331	     -0.63083841	     89.94433796	    -13.30159876	     24.17187139	     37.71690657	     82.23663458	      0.00000000	      0.00000000	     89.94635650	     -5.98913633	     25.81650885	     39.26087485	     83.15248411	      0.00000000	      0.00000000
      3.70500000	     -5.38283276	      3.61114343	      7.07486532	     -0.33030123	      0.99940729	     -0.77792472	     29.46095542	     -6.38061500	    -15.47860376	     49.92051138	      0.87127729	     14.50963050	      0.00000000	      0.00000000	     17.37264558	    -10.52936622	     -5.83115171	     93.77401031	      1.63666523	    -16.57563844	      0.00000000	      0.00000000	     -6.44713735	      2.87469470	     -0.59936509	     89.94425263	    -13.24170116	     24.10567038	     37.73757458	     82.19614980	      0.00000000	      0.00000000	     89.94634630	     -6.03861893	     25.78831414	     39.25247152	     83.28887625	      0.00000000	      0.00000000
      3.71000000	     -5.45463370	      3.56854915	      7.02506955	     -0.33019216	      0.99865669	     -0.77784980	     29.62166081	     -6.38050307	    -15.52149089	     50.11451932	      0.87466337	     14.58322306	      0.00000000	      0.00000000	     17.37815140	    -10.62409583	     -5.96184661	     93.74531448	      1.63616440	    -16.58978472	      0.00000000	      0.00000000	     -6.40277721	      2.92433754	     -0.53718449	     89.94427816	    -13.23658609	     24.09156674	     37.75719146	     82.20248570	      0.00000000	      0.00000000	     89.94647062	     -6.07194178	     25.76941137	     39.26202102	     83.19634350	      0.00000000	      0.00000000
      3.71500000	     -5.42844842	      3.52647951	      6.99131880	     -0.33009934	      0.99815700	     -0.77776059	     29.64098190	     -6.36817506	    -15.58995974	     50.24058723	      0.87686367	     14.67885795	      0.00000000	      0.00000000	     17.28109270	    -10.71885855	     -6.05168739	     93.66777330	      1.63481105	    -16.76540399	      0.00000000	      0.00000000	     -6.47275657	      2.97960548	     -0.51278799	     89.94448630	    -13.21234804	     24.63608441	     37.86427886	     77.92530162	      0.00000000	      0.00000000	     89.94641951	     -6.13389293	     26.32861577	     39.39681465	     78.82120677	      0.00000000	      0.00000000
      3.72000000	     -5.53053722	      3.50709400	      6.95401417	     -0.33007294	      0.99740663	     -0.77769864	     29.84820239	     -6.39212048	    -15.60587101	     50.46890538	      0.88084857	     14.71739506	      0.00000000	      0.00000000	     17.32688486	    -10.78212192	     -6.17300595	     93.67027527	      1.63485471	    -16.75651094	      0.00000000	      0.00000000	     -6.40862702	      2.98839487	     -0.43098685	     89.94465832	    -13.23432072	     23.94163477	     37.83472442	     82.19540254	      0.00000000	      0.00000000	     89.94649478	     -6.09320579	     25.79666479	     39.31774587	     83.16005423	      0.00000000	      0.00000000
      3.72500000	     -5.58077870	      3.42992932	      6.93182289	     -0.32996508	      0.99666193	     -0.77769484	     29.96993342	     -6.35721551	    -15.66962775	     50.62707914	      0.88360922	     14.77341488	      0.00000000	      0.00000000	     17.33179447	    -10.89377175	     -6.22918738	     93.67906825	      1.63500818	    -16.74974941	      0.00000000	      0.00000000	     -6.37138232	      3.08987105	     -0.43313144	     89.94456528	    -13.15293728	     23.94751833	     37.81875984	     82.11643593	      0.00000000	      0.00000000	     89.94669019	     -6.15334171	     25.68651827	     39.31685627	     83.20226353	      0.00000000	      0.00000000
